<svg xmlns="http://www.w3.org/2000/svg" width="1290" height="690" viewBox="-3780 -28980 108360 57960" fill="none" font-family="Calibri,Arial,'Liberation Sans',sans-serif">
	<title>Flag of Cuba — construction sheet</title>
	<!-- DIMENSIONS
		SVG:
			S_RAW:     108360.00 × 57960.00
			S_DISPLAY:  1290.00 × 690.00
		FLAG:
			F_RAW:     100800.00 × 50400.00
			F_DISPLAY:  1200.00 × 600.00
			F_LABEL:      30.00 × 15.00
			F_RATIO:       2.00 × 1.00
	-->
	<defs>
		<marker id="left-arrow" viewBox="-4 -4 10 8" orient="auto" markerWidth="10" markerHeight="8">
			<path fill="blue" d="m2 0 4 4-10-4L6-4z"/>
		</marker>
		<marker id="right-arrow" viewBox="-6 -4 10 8" orient="auto" markerWidth="10" markerHeight="8">
			<path fill="blue" d="m-2 0-4 4L4 0-6-4z"/>
		</marker>
	</defs>
	<path fill="#fafafa" d="m-3780-28980h108360v57960H-3780z"/>
	<path fill="#fff" d="m0-25200h100800v50400H0z"/>
	<g opacity=".5">
		<g transform="scale(1680)">
			<path fill="#002a8f"  d="m0-15h60v30H0z"/>
			<path fill="#fff" d="m6-9h54v6H18v6h42v6H6z"/>
		</g>
		<path fill="#cb1515" d="m43648 0L0 25200v-50400z"/>
		<path fill="#fff" d="m14549-8400 4938 15196L6560-2596h15978L9612 6796z"/>
	</g>
	<g stroke="#000" stroke-width="140" stroke-linejoin="round" stroke-linecap="round">
		<g opacity=".4" stroke-width="100">
			<path stroke-dashoffset="368" stroke-dasharray="735,315,105,315" d="m50400 0v-25200m0 25200v25200"/>
			<path stroke-dashoffset="368" stroke-dasharray="735,315,105,315" d="m14549 0H0m14549 0h8715m27136 0H25784m24616 0h50400"/>
		</g>
		<path stroke="#808" stroke-width="75" stroke-dasharray="210,210" d="m0-25200L14549 0M0 25200 14549 0"/>
		<path stroke="#66f" opacity=".8" stroke-dasharray="420,444" stroke-dashoffset="210" d="m14549-8400a1 1 0 0 0 0 16800m0-16800a1 1 0 0 1 0 16800"/>
		<path stroke="#444" stroke-width="250" d="m0-25200h100800v50400H0z"/>
		<path d="m17459-15120h83341M34918-5040h65882M34918 5040h65882M17459 15120h83341M0-25200 43648 0 0 25200M14549-8400l1886 5804h6103L17601 991l1886 5805-4938-3587-4937 3587 1886-5805-4938-3587h6103z"/>
		<path stroke="#222" stroke-width="75" stroke-dasharray="210,210" d="m0-25200V0m0 27720V0m100800-25200V0m0 27720V0M-2520-25200h52920m52920 0H50400m52920 10080h-2520M25469-8400H14549M25469 8400H14549m88771-13440h-2520m2520 10080h-2520m2520 10080h-2520M-2520 25200h52920m52920 0H50400M1260-27382 0-25200M44908-2182 43648 0"/>
		<path stroke-width="135" d="m14174 0h750m-375-375v750"/>
	</g>
	<g fill="#008" opacity=".8">
		<circle r="200" cx="0" cy="-25200"/>
		<circle r="200" cx="-0" cy="25200"/>
		<circle r="200" cx="14549" cy="-8400"/>
		<circle r="200" cx="14549" cy="8400"/>
		<circle r="200" cx="43648" cy="0"/>
	</g>
	<g stroke="#00f" stroke-width="75" marker-start="url(#left-arrow)">
		<path d="m300 26775h48300"/>
		<path d="m100500 26775H52200"/>
		<path d="m-1575 24900V1800"/>
		<path d="m-1575-24900v23100"/>
		<path d="m24524 8100V1200"/>
		<path d="m24524-8100v6900"/>
		<path d="m102375-15420v-3540"/>
		<path d="m102375-24900v3540"/>
		<path d="m102375-5340v-3540"/>
		<path d="m102375-14820v3540"/>
		<path d="m102375 4740V1200"/>
		<path d="m102375-4740v3540"/>
		<path d="m102375 14820v-3540"/>
		<path d="m102375 5340v3540"/>
		<path d="m102375 24900v-3540"/>
		<path d="m102375 15420v3540"/>
		<path d="m1047-26414 20439 11800"/>
		<path d="m44175-1514-19572-11300"/>
		<g marker-end="url(#right-arrow)">
			<path d="m9598-19312a11256 11256 0 0 1-3710 3710"/>
			<path d="m5368-15302a11256 11256 0 0 1-5068 1358"/>
			<path d="m9598 19312a11256 11256 0 0 0-3710-3710"/>
			<path d="m5368 15302a11256 11256 0 0 0-5068-1358"/>
		</g>
	</g>
	<g fill="#000" text-anchor="middle" font-size="50" transform="scale(50)">
		<g>
			<text x="1008" y="550">30</text>
		</g>
		<g transform="rotate(15)">
			<text x="130" y="302">30°</text>
		</g>
		<g transform="rotate(30)">
			<text x="262" y="-453">15</text>
		</g>
		<g transform="rotate(45)">
			<text x="356" y="171">30°</text>
		</g>
		<g transform="rotate(270)">
			<text y="-17">15</text>
			<text y="505">5</text>
			<text x="403" y="2063">3</text>
			<text x="202" y="2063">3</text>
			<text y="2063">3</text>
			<text x="-202" y="2063">3</text>
			<text x="-403" y="2063">3</text>
		</g>
		<g transform="rotate(315)">
			<text x="356" y="-141">30°</text>
		</g>
		<g transform="rotate(345)">
			<text x="130" y="-272">30°</text>
		</g>
		<g font-size="27">
			<text x="-37" y="554">[<tspan font-weight="bold" fill="#080">CU</tspan>]</text>
			<text x="2053" y="554">[<tspan font-weight="bold" fill="#080">1:2</tspan>]</text>
		</g>
	</g>
</svg>
