<svg id="svg" version="1.1" xmlns="http://www.w3.org/2000/svg" xmlns:xlink="http://www.w3.org/1999/xlink" width="400" height="400" viewBox="0, 0, 400,400"><g id="svgg"><path id="path0" d="M78.400 145.066 C 77.850 145.169,74.880 146.073,71.800 147.075 C 68.720 148.078,65.120 149.222,63.800 149.618 C 61.649 150.264,57.193 151.821,50.200 154.369 C 48.880 154.850,46.990 155.513,46.000 155.842 C 44.138 156.461,42.706 157.036,41.505 157.647 C 41.123 157.841,40.634 158.000,40.417 158.000 C 40.201 158.000,39.070 158.436,37.905 158.969 C 36.740 159.502,34.889 160.294,33.793 160.730 C 24.367 164.473,14.401 170.338,10.536 174.416 C -10.668 196.793,3.027 233.725,33.700 236.884 C 45.090 238.057,58.175 233.254,64.600 225.542 C 67.380 222.205,73.200 212.945,73.200 211.860 C 73.200 211.739,73.996 209.965,74.969 207.920 C 75.942 205.874,77.306 202.760,78.001 201.000 C 78.696 199.240,79.508 197.260,79.805 196.600 C 80.103 195.940,80.616 194.590,80.947 193.600 C 81.277 192.610,82.110 190.270,82.798 188.400 C 85.982 179.743,86.774 177.429,90.050 167.200 C 92.944 158.166,93.145 156.068,91.469 152.373 C 89.153 147.266,83.513 144.113,78.400 145.066 M317.600 145.163 C 309.246 146.916,305.732 154.092,308.768 163.200 C 309.171 164.410,310.174 167.560,310.997 170.200 C 311.819 172.840,313.088 176.710,313.816 178.800 C 316.262 185.819,317.255 188.595,317.608 189.400 C 317.802 189.840,318.222 191.010,318.543 192.000 C 319.133 193.824,321.160 199.040,322.273 201.600 C 322.608 202.370,323.024 203.360,323.199 203.800 C 332.444 227.110,344.154 236.958,362.600 236.935 C 371.019 236.925,373.609 236.219,382.404 231.535 C 385.047 230.127,388.424 227.089,391.224 223.600 C 392.195 222.390,393.102 221.310,393.240 221.200 C 393.378 221.090,394.216 219.626,395.103 217.946 C 405.009 199.182,398.892 178.400,380.259 167.517 C 377.256 165.764,367.736 161.186,364.600 159.987 C 364.160 159.819,363.170 159.408,362.400 159.074 C 361.630 158.739,360.190 158.164,359.200 157.796 C 358.210 157.427,357.040 156.981,356.600 156.803 C 356.160 156.626,355.170 156.264,354.400 156.000 C 353.630 155.736,352.640 155.366,352.200 155.180 C 351.760 154.993,350.590 154.573,349.600 154.247 C 348.610 153.920,346.270 153.087,344.400 152.396 C 342.530 151.705,339.020 150.514,336.600 149.750 C 334.180 148.985,330.130 147.668,327.600 146.824 C 322.643 145.169,319.813 144.698,317.600 145.163 " stroke="none" fill="#05abf3" fill-rule="evenodd"></path><path id="path1" d="M75.973 225.203 C 68.714 226.432,62.971 235.709,65.915 241.449 C 66.126 241.862,66.649 242.920,67.077 243.800 C 76.998 264.234,96.711 286.675,115.600 299.037 C 117.250 300.116,118.690 301.100,118.800 301.222 C 121.108 303.779,142.607 314.146,151.596 317.036 C 158.317 319.197,159.604 319.568,164.400 320.727 C 169.038 321.847,170.421 322.124,176.700 323.191 C 189.912 325.435,210.088 325.435,223.300 323.191 C 229.574 322.125,230.962 321.847,235.600 320.730 C 241.145 319.395,241.254 319.364,247.218 317.428 C 256.002 314.577,266.244 310.024,274.173 305.446 C 276.312 304.211,278.119 303.200,278.187 303.200 C 278.577 303.200,287.551 297.025,290.600 294.659 C 300.840 286.711,313.781 273.750,318.815 266.400 C 319.342 265.630,320.015 264.752,320.310 264.448 C 322.410 262.288,332.419 245.630,333.985 241.690 C 336.778 234.661,331.657 226.485,323.638 225.171 C 320.909 224.724,78.617 224.756,75.973 225.203 " stroke="none" fill="#f34434" fill-rule="evenodd"></path><path id="path2" d="M120.800 100.437 C 97.673 102.843,79.204 119.994,76.027 142.017 C 75.851 143.236,75.574 144.653,75.411 145.167 C 75.216 145.781,75.258 146.011,75.534 145.841 C 83.145 141.137,94.286 150.621,92.282 160.097 L 91.965 161.594 93.482 160.703 C 97.661 158.251,99.983 153.879,99.995 148.443 C 100.022 136.282,112.166 124.800,125.000 124.800 C 137.486 124.800,150.000 136.224,150.000 147.622 C 150.000 150.521,150.779 154.058,151.810 155.835 C 158.450 167.288,174.800 162.521,174.800 149.131 C 174.800 124.949,154.652 102.936,130.400 100.621 C 125.046 100.110,124.119 100.092,120.800 100.437 M270.800 100.437 C 252.451 102.346,236.830 113.447,229.656 129.675 C 226.214 137.462,224.168 149.432,225.656 153.081 C 226.911 156.160,227.382 156.999,228.619 158.369 C 236.443 167.029,249.968 160.749,249.995 148.443 C 250.022 136.282,262.166 124.800,275.000 124.800 C 287.486 124.800,300.000 136.224,300.000 147.622 C 300.000 153.594,302.326 158.274,306.500 160.701 C 308.133 161.651,308.201 161.549,307.615 159.023 C 305.730 150.892,316.847 141.772,323.987 145.593 C 324.799 146.027,324.889 146.009,324.675 145.451 C 324.540 145.098,324.312 143.863,324.169 142.705 C 321.513 121.182,302.303 102.712,280.400 100.621 C 275.046 100.110,274.119 100.092,270.800 100.437 " stroke="none" fill="#6c4c44" fill-rule="evenodd"></path><path id="path3" d="M182.389 0.136 C 182.273 0.257,180.518 0.389,178.489 0.431 C 176.460 0.472,174.800 0.661,174.800 0.853 C 174.800 1.044,173.551 1.200,172.024 1.200 C 170.497 1.200,169.136 1.380,169.000 1.600 C 168.864 1.820,167.874 2.000,166.800 2.000 C 165.726 2.000,164.736 2.180,164.600 2.400 C 164.464 2.620,163.373 2.800,162.176 2.800 C 160.979 2.800,160.000 2.980,160.000 3.200 C 160.000 3.420,159.280 3.600,158.400 3.600 C 157.520 3.600,156.800 3.780,156.800 4.000 C 156.800 4.220,156.091 4.400,155.224 4.400 C 154.357 4.400,153.536 4.580,153.400 4.800 C 153.264 5.020,152.343 5.200,151.353 5.200 C 150.255 5.200,149.649 5.356,149.800 5.600 C 149.949 5.842,149.404 6.000,148.424 6.000 C 147.531 6.000,146.800 6.180,146.800 6.400 C 146.800 6.620,146.159 6.800,145.376 6.800 C 144.529 6.800,144.053 6.962,144.200 7.200 C 144.350 7.442,143.796 7.600,142.800 7.600 C 141.894 7.600,141.252 7.761,141.374 7.958 C 141.496 8.155,140.922 8.407,140.098 8.519 C 139.274 8.630,138.330 8.801,138.000 8.898 C 137.670 8.995,136.860 9.218,136.200 9.393 C 135.540 9.567,134.820 9.838,134.600 9.993 C 134.380 10.149,133.300 10.510,132.200 10.797 C 131.100 11.083,130.029 11.471,129.820 11.659 C 129.611 11.847,129.116 12.000,128.720 12.000 C 128.324 12.000,128.000 12.180,128.000 12.400 C 128.000 12.620,127.561 12.800,127.024 12.800 C 126.487 12.800,125.936 12.980,125.800 13.200 C 125.664 13.420,125.203 13.600,124.776 13.600 C 124.349 13.600,124.000 13.780,124.000 14.000 C 124.000 14.220,123.645 14.400,123.212 14.400 C 122.779 14.400,121.783 14.760,121.000 15.200 C 120.217 15.640,119.311 16.000,118.988 16.000 C 118.665 16.000,118.400 16.180,118.400 16.400 C 118.400 16.620,118.040 16.800,117.600 16.800 C 117.160 16.800,116.800 16.980,116.800 17.200 C 116.800 17.420,116.440 17.600,116.000 17.600 C 115.560 17.600,115.200 17.780,115.200 18.000 C 115.200 18.220,114.750 18.400,114.200 18.400 C 113.650 18.400,113.200 18.544,113.200 18.720 C 113.200 18.895,112.525 19.281,111.700 19.576 C 110.875 19.871,110.110 20.222,110.000 20.356 C 109.594 20.851,107.991 21.600,107.339 21.600 C 106.969 21.600,106.784 21.717,106.927 21.861 C 107.212 22.145,105.402 23.200,104.630 23.200 C 104.366 23.200,103.764 23.560,103.292 24.000 C 102.820 24.440,102.261 24.800,102.049 24.800 C 101.521 24.800,99.031 26.130,98.867 26.500 C 98.793 26.665,98.580 26.800,98.393 26.800 C 97.937 26.800,93.998 29.221,93.025 30.100 C 92.598 30.485,92.013 30.800,91.725 30.800 C 91.436 30.800,91.200 30.980,91.200 31.200 C 91.200 31.420,90.880 31.600,90.488 31.600 C 90.097 31.600,89.517 31.960,89.200 32.400 C 88.883 32.840,88.343 33.200,88.000 33.200 C 87.657 33.200,87.117 33.560,86.800 34.000 C 86.483 34.440,85.943 34.800,85.600 34.800 C 85.257 34.800,84.717 35.160,84.400 35.600 C 84.083 36.040,83.593 36.400,83.312 36.400 C 83.030 36.400,82.800 36.580,82.800 36.800 C 82.800 37.020,82.570 37.200,82.288 37.200 C 82.007 37.200,81.517 37.560,81.200 38.000 C 80.883 38.440,80.395 38.800,80.115 38.800 C 79.836 38.800,79.091 39.340,78.460 40.000 C 77.829 40.660,77.097 41.200,76.833 41.200 C 76.569 41.200,76.464 41.380,76.600 41.600 C 76.736 41.820,76.567 42.000,76.224 42.000 C 75.881 42.000,75.600 42.210,75.600 42.467 C 75.600 42.723,75.495 42.828,75.366 42.699 C 75.238 42.571,74.484 43.077,73.691 43.825 C 72.899 44.572,72.173 45.107,72.079 45.013 C 71.985 44.918,71.040 45.732,69.980 46.821 C 68.920 47.909,67.975 48.800,67.881 48.800 C 67.588 48.800,63.592 52.480,60.932 55.200 C 57.852 58.349,58.349 57.852,55.200 60.932 C 52.480 63.592,48.800 67.588,48.800 67.881 C 48.800 67.975,47.909 68.920,46.821 69.980 C 45.732 71.040,44.918 71.985,45.013 72.079 C 45.107 72.173,44.572 72.899,43.825 73.691 C 43.077 74.484,42.571 75.238,42.699 75.366 C 42.828 75.495,42.723 75.600,42.467 75.600 C 42.210 75.600,42.000 75.881,42.000 76.224 C 42.000 76.567,41.820 76.736,41.600 76.600 C 41.380 76.464,41.200 76.617,41.200 76.941 C 41.200 77.264,40.660 77.983,40.000 78.539 C 39.340 79.094,38.800 79.790,38.800 80.086 C 38.800 80.382,38.440 80.883,38.000 81.200 C 37.560 81.517,37.200 82.007,37.200 82.288 C 37.200 82.570,37.020 82.800,36.800 82.800 C 36.580 82.800,36.400 83.030,36.400 83.312 C 36.400 83.593,36.040 84.083,35.600 84.400 C 35.160 84.717,34.800 85.257,34.800 85.600 C 34.800 85.943,34.440 86.483,34.000 86.800 C 33.560 87.117,33.200 87.657,33.200 88.000 C 33.200 88.343,32.840 88.883,32.400 89.200 C 31.960 89.517,31.600 90.097,31.600 90.488 C 31.600 90.880,31.420 91.200,31.200 91.200 C 30.980 91.200,30.800 91.436,30.800 91.725 C 30.800 92.013,30.485 92.598,30.100 93.025 C 29.221 93.998,26.800 97.937,26.800 98.393 C 26.800 98.580,26.665 98.793,26.500 98.867 C 26.130 99.031,24.800 101.521,24.800 102.049 C 24.800 102.261,24.440 102.820,24.000 103.292 C 23.560 103.764,23.200 104.366,23.200 104.630 C 23.200 105.402,22.145 107.212,21.861 106.927 C 21.717 106.784,21.600 106.969,21.600 107.339 C 21.600 107.991,20.851 109.594,20.356 110.000 C 20.222 110.110,19.871 110.875,19.576 111.700 C 19.281 112.525,18.895 113.200,18.720 113.200 C 18.544 113.200,18.400 113.650,18.400 114.200 C 18.400 114.750,18.220 115.200,18.000 115.200 C 17.780 115.200,17.600 115.560,17.600 116.000 C 17.600 116.440,17.420 116.800,17.200 116.800 C 16.980 116.800,16.800 117.160,16.800 117.600 C 16.800 118.040,16.620 118.400,16.400 118.400 C 16.180 118.400,16.000 118.665,16.000 118.988 C 16.000 119.311,15.640 120.217,15.200 121.000 C 14.760 121.783,14.400 122.779,14.400 123.212 C 14.400 123.645,14.220 124.000,14.000 124.000 C 13.780 124.000,13.600 124.349,13.600 124.776 C 13.600 125.203,13.420 125.664,13.200 125.800 C 12.980 125.936,12.800 126.487,12.800 127.024 C 12.800 127.561,12.620 128.000,12.400 128.000 C 12.180 128.000,12.000 128.324,12.000 128.720 C 12.000 129.116,11.847 129.611,11.659 129.820 C 11.471 130.029,11.083 131.100,10.797 132.200 C 10.510 133.300,10.149 134.380,9.993 134.600 C 9.838 134.820,9.567 135.540,9.393 136.200 C 9.218 136.860,8.995 137.670,8.898 138.000 C 8.801 138.330,8.630 139.274,8.519 140.098 C 8.407 140.922,8.155 141.496,7.958 141.374 C 7.761 141.252,7.600 141.894,7.600 142.800 C 7.600 143.796,7.442 144.350,7.200 144.200 C 6.962 144.053,6.800 144.529,6.800 145.376 C 6.800 146.159,6.620 146.800,6.400 146.800 C 6.180 146.800,6.000 147.531,6.000 148.424 C 6.000 149.404,5.842 149.949,5.600 149.800 C 5.356 149.649,5.200 150.255,5.200 151.353 C 5.200 152.343,5.020 153.264,4.800 153.400 C 4.580 153.536,4.400 154.357,4.400 155.224 C 4.400 156.091,4.220 156.800,4.000 156.800 C 3.780 156.800,3.600 157.520,3.600 158.400 C 3.600 159.280,3.420 160.000,3.200 160.000 C 2.980 160.000,2.800 160.979,2.800 162.176 C 2.800 163.373,2.620 164.464,2.400 164.600 C 2.180 164.736,2.000 165.726,2.000 166.800 C 2.000 167.874,1.820 168.864,1.600 169.000 C 1.380 169.136,1.200 170.497,1.200 172.024 C 1.200 173.551,1.050 174.800,0.867 174.800 C 0.683 174.800,0.522 175.025,0.508 175.300 C 0.494 175.575,0.368 179.760,0.230 184.600 L -0.022 193.400 1.201 189.600 C 3.451 182.614,6.018 178.349,10.903 173.482 C 14.594 169.805,26.702 162.400,29.025 162.400 C 29.341 162.400,29.600 162.220,29.600 162.000 C 29.600 161.780,29.853 161.600,30.162 161.600 C 30.471 161.600,31.506 161.214,32.462 160.743 C 33.418 160.272,34.560 159.756,35.000 159.597 C 36.086 159.203,37.440 158.639,39.696 157.640 C 40.738 157.178,41.833 156.800,42.129 156.800 C 42.425 156.800,42.786 156.681,42.932 156.535 C 43.195 156.272,45.725 155.312,49.200 154.158 C 50.190 153.829,51.360 153.401,51.800 153.206 C 53.641 152.393,62.913 149.274,68.400 147.621 C 70.050 147.124,71.713 146.556,72.095 146.359 C 72.477 146.162,73.156 146.000,73.604 146.000 C 74.570 146.000,75.142 144.751,75.617 141.600 C 76.770 133.962,80.058 126.318,85.043 119.689 C 88.029 115.717,94.241 109.920,97.400 108.155 C 97.840 107.909,99.268 107.054,100.574 106.255 C 103.415 104.517,110.065 101.909,113.400 101.226 C 114.720 100.955,116.555 100.569,117.477 100.367 C 119.811 99.856,130.291 99.907,132.869 100.442 C 140.685 102.063,144.524 103.420,149.705 106.391 C 159.553 112.037,167.852 121.531,171.657 131.500 C 171.845 131.995,172.155 132.805,172.345 133.300 C 173.166 135.445,173.628 137.313,174.779 143.131 C 175.337 145.954,175.316 152.077,174.744 153.481 C 173.492 156.550,173.074 157.265,171.694 158.696 C 164.751 165.893,151.579 162.402,150.228 153.007 C 150.132 152.343,149.844 150.180,149.587 148.200 C 148.835 142.414,147.269 138.438,144.226 134.589 C 142.775 132.753,138.792 129.200,138.185 129.200 C 138.041 129.200,137.446 128.864,136.862 128.454 C 133.713 126.242,126.315 124.810,121.940 125.566 C 109.508 127.714,101.957 135.787,100.397 148.600 C 99.564 155.448,97.741 158.906,93.864 160.993 C 92.343 161.813,91.959 162.419,91.200 165.200 C 90.930 166.190,90.571 167.360,90.402 167.800 C 90.234 168.240,89.499 170.490,88.771 172.800 C 87.073 178.181,81.645 193.574,80.307 196.800 C 80.079 197.350,79.755 198.160,79.586 198.600 C 79.418 199.040,78.902 200.253,78.440 201.296 C 77.978 202.338,77.600 203.301,77.600 203.435 C 77.600 203.690,75.103 209.036,73.226 212.800 C 72.079 215.101,70.479 218.026,69.070 220.400 C 68.071 222.083,64.343 226.759,63.326 227.603 C 59.251 230.989,57.461 232.210,54.293 233.767 C 43.607 239.018,31.085 238.990,20.573 233.691 C 11.449 229.092,4.245 220.469,1.280 210.600 C 0.817 209.060,0.338 207.530,0.216 207.200 C 0.052 206.757,0.276 220.186,0.508 224.700 C 0.522 224.975,0.683 225.200,0.867 225.200 C 1.050 225.200,1.200 226.449,1.200 227.976 C 1.200 229.503,1.380 230.864,1.600 231.000 C 1.820 231.136,2.000 232.227,2.000 233.424 C 2.000 234.621,2.180 235.600,2.400 235.600 C 2.620 235.600,2.800 236.489,2.800 237.576 C 2.800 238.663,2.980 239.664,3.200 239.800 C 3.420 239.936,3.600 240.757,3.600 241.624 C 3.600 242.491,3.780 243.200,4.000 243.200 C 4.220 243.200,4.400 243.909,4.400 244.776 C 4.400 245.643,4.580 246.464,4.800 246.600 C 5.020 246.736,5.200 247.647,5.200 248.624 C 5.200 249.601,5.380 250.400,5.600 250.400 C 5.820 250.400,6.000 251.030,6.000 251.800 C 6.000 252.570,6.180 253.200,6.400 253.200 C 6.620 253.200,6.800 253.830,6.800 254.600 C 6.800 255.370,6.980 256.000,7.200 256.000 C 7.420 256.000,7.600 256.641,7.600 257.424 C 7.600 258.207,7.761 258.748,7.958 258.626 C 8.155 258.504,8.407 259.078,8.519 259.902 C 8.630 260.726,8.801 261.670,8.898 262.000 C 8.995 262.330,9.218 263.140,9.393 263.800 C 9.567 264.460,9.833 265.180,9.983 265.400 C 10.133 265.620,10.487 266.610,10.770 267.600 C 11.053 268.590,11.626 270.092,12.042 270.938 C 12.459 271.784,12.800 272.819,12.800 273.238 C 12.800 273.657,12.980 274.000,13.200 274.000 C 13.420 274.000,13.600 274.349,13.600 274.776 C 13.600 275.203,13.780 275.664,14.000 275.800 C 14.220 275.936,14.400 276.476,14.400 277.000 C 14.400 277.524,14.580 278.064,14.800 278.200 C 15.020 278.336,15.200 278.797,15.200 279.224 C 15.200 279.651,15.335 280.001,15.500 280.003 C 15.859 280.007,16.800 281.944,16.800 282.680 C 16.800 282.966,16.980 283.200,17.200 283.200 C 17.420 283.200,17.600 283.560,17.600 284.000 C 17.600 284.440,17.780 284.800,18.000 284.800 C 18.220 284.800,18.400 285.143,18.400 285.562 C 18.400 286.230,19.854 289.455,20.401 290.000 C 20.511 290.110,20.865 290.740,21.186 291.400 C 21.508 292.060,22.093 293.078,22.486 293.662 C 22.879 294.246,23.200 294.977,23.200 295.286 C 23.200 295.596,23.560 296.236,24.000 296.708 C 24.440 297.180,24.800 297.739,24.800 297.951 C 24.800 298.479,26.130 300.969,26.500 301.133 C 26.665 301.207,26.800 301.451,26.800 301.675 C 26.800 301.900,27.340 302.884,28.000 303.862 C 28.660 304.840,29.200 305.811,29.200 306.020 C 29.200 306.229,29.358 306.400,29.551 306.400 C 29.745 306.400,30.127 306.940,30.400 307.600 C 30.673 308.260,31.055 308.800,31.249 308.800 C 31.442 308.800,31.600 309.120,31.600 309.512 C 31.600 309.903,31.960 310.483,32.400 310.800 C 32.840 311.117,33.200 311.657,33.200 312.000 C 33.200 312.343,33.560 312.883,34.000 313.200 C 34.440 313.517,34.800 314.057,34.800 314.400 C 34.800 314.743,35.160 315.283,35.600 315.600 C 36.040 315.917,36.400 316.407,36.400 316.688 C 36.400 316.970,36.580 317.200,36.800 317.200 C 37.020 317.200,37.200 317.430,37.200 317.712 C 37.200 317.993,37.560 318.483,38.000 318.800 C 38.440 319.117,38.800 319.625,38.800 319.928 C 38.800 320.231,39.340 320.983,40.000 321.600 C 40.660 322.217,41.200 322.929,41.200 323.184 C 41.200 323.439,41.380 323.536,41.600 323.400 C 41.820 323.264,42.000 323.433,42.000 323.776 C 42.000 324.119,42.210 324.400,42.467 324.400 C 42.723 324.400,42.827 324.506,42.697 324.636 C 42.568 324.766,42.988 325.422,43.631 326.095 C 44.274 326.768,44.800 327.463,44.800 327.640 C 44.800 327.817,45.700 328.862,46.800 329.962 C 47.900 331.062,48.800 332.142,48.800 332.361 C 48.800 332.581,49.115 332.944,49.500 333.168 C 49.885 333.392,50.073 333.581,49.917 333.588 C 49.761 333.595,51.418 335.355,53.598 337.500 C 58.187 342.014,57.595 341.422,62.125 346.021 C 64.063 347.990,65.829 349.600,66.048 349.600 C 66.268 349.600,66.336 349.780,66.200 350.000 C 66.064 350.220,66.215 350.400,66.536 350.400 C 66.857 350.400,67.995 351.257,69.065 352.305 C 70.135 353.353,71.638 354.650,72.405 355.186 C 73.172 355.723,74.115 356.513,74.500 356.942 C 74.885 357.371,75.200 357.577,75.200 357.400 C 75.200 357.223,75.536 357.465,75.947 357.939 C 76.358 358.412,76.833 358.800,77.004 358.800 C 77.174 358.800,77.829 359.340,78.460 360.000 C 79.091 360.660,79.836 361.200,80.115 361.200 C 80.395 361.200,80.883 361.560,81.200 362.000 C 81.517 362.440,82.007 362.800,82.288 362.800 C 82.570 362.800,82.800 362.980,82.800 363.200 C 82.800 363.420,83.030 363.600,83.312 363.600 C 83.593 363.600,84.083 363.960,84.400 364.400 C 84.717 364.840,85.257 365.200,85.600 365.200 C 85.943 365.200,86.483 365.560,86.800 366.000 C 87.117 366.440,87.657 366.800,88.000 366.800 C 88.343 366.800,88.883 367.160,89.200 367.600 C 89.517 368.040,90.097 368.400,90.488 368.400 C 90.880 368.400,91.200 368.558,91.200 368.751 C 91.200 368.945,91.740 369.327,92.400 369.600 C 93.060 369.873,93.600 370.255,93.600 370.449 C 93.600 370.642,93.793 370.800,94.028 370.800 C 94.263 370.800,95.241 371.340,96.200 372.000 C 97.159 372.660,98.056 373.200,98.193 373.200 C 98.330 373.200,99.105 373.650,99.914 374.200 C 100.723 374.750,101.621 375.200,101.910 375.200 C 102.198 375.200,102.820 375.560,103.292 376.000 C 103.764 376.440,104.404 376.800,104.714 376.800 C 105.023 376.800,105.754 377.121,106.338 377.514 C 106.922 377.907,107.940 378.492,108.600 378.814 C 109.260 379.135,109.890 379.489,110.000 379.599 C 110.476 380.077,112.039 380.800,112.595 380.800 C 112.928 380.800,113.200 380.980,113.200 381.200 C 113.200 381.420,113.650 381.600,114.200 381.600 C 114.750 381.600,115.200 381.780,115.200 382.000 C 115.200 382.220,115.560 382.400,116.000 382.400 C 116.440 382.400,116.800 382.580,116.800 382.800 C 116.800 383.020,117.072 383.200,117.405 383.200 C 117.995 383.200,119.598 383.963,120.000 384.435 C 120.110 384.564,121.055 384.918,122.100 385.222 C 123.145 385.526,124.000 385.915,124.000 386.087 C 124.000 386.259,124.450 386.400,125.000 386.400 C 125.550 386.400,126.000 386.580,126.000 386.800 C 126.000 387.020,126.450 387.200,127.000 387.200 C 127.550 387.200,128.000 387.380,128.000 387.600 C 128.000 387.820,128.349 388.000,128.776 388.000 C 129.203 388.000,129.664 388.180,129.800 388.400 C 129.936 388.620,130.476 388.800,131.000 388.800 C 131.524 388.800,132.064 388.980,132.200 389.200 C 132.336 389.420,132.857 389.600,133.357 389.600 C 133.857 389.600,134.393 389.726,134.547 389.880 C 135.018 390.351,139.330 391.588,140.524 391.594 C 141.170 391.597,141.542 391.770,141.400 392.000 C 141.250 392.242,141.804 392.400,142.800 392.400 C 143.796 392.400,144.350 392.558,144.200 392.800 C 144.053 393.038,144.529 393.200,145.376 393.200 C 146.159 393.200,146.800 393.380,146.800 393.600 C 146.800 393.820,147.520 394.000,148.400 394.000 C 149.280 394.000,150.000 394.180,150.000 394.400 C 150.000 394.620,150.720 394.800,151.600 394.800 C 152.480 394.800,153.200 394.980,153.200 395.200 C 153.200 395.420,154.010 395.600,155.000 395.600 C 155.990 395.600,156.800 395.780,156.800 396.000 C 156.800 396.220,157.509 396.400,158.376 396.400 C 159.243 396.400,160.064 396.580,160.200 396.800 C 160.336 397.020,161.337 397.200,162.424 397.200 C 163.511 397.200,164.400 397.380,164.400 397.600 C 164.400 397.820,165.379 398.000,166.576 398.000 C 167.773 398.000,168.864 398.180,169.000 398.400 C 169.136 398.620,170.497 398.800,172.024 398.800 C 173.551 398.800,174.800 398.956,174.800 399.147 C 174.800 399.987,224.824 400.127,225.104 399.288 C 225.211 398.967,226.206 398.800,228.010 398.800 C 229.518 398.800,230.864 398.620,231.000 398.400 C 231.136 398.180,232.227 398.000,233.424 398.000 C 234.621 398.000,235.600 397.820,235.600 397.600 C 235.600 397.380,236.590 397.200,237.800 397.200 C 239.010 397.200,240.000 397.020,240.000 396.800 C 240.000 396.580,240.720 396.400,241.600 396.400 C 242.480 396.400,243.200 396.220,243.200 396.000 C 243.200 395.780,243.999 395.600,244.976 395.600 C 245.953 395.600,246.864 395.420,247.000 395.200 C 247.136 394.980,247.957 394.800,248.824 394.800 C 249.691 394.800,250.400 394.620,250.400 394.400 C 250.400 394.180,251.030 394.000,251.800 394.000 C 252.570 394.000,253.200 393.820,253.200 393.600 C 253.200 393.380,253.841 393.200,254.624 393.200 C 255.471 393.200,255.947 393.038,255.800 392.800 C 255.653 392.562,256.129 392.400,256.976 392.400 C 257.759 392.400,258.400 392.220,258.400 392.000 C 258.400 391.780,258.944 391.600,259.610 391.600 C 260.275 391.600,261.850 391.227,263.110 390.772 C 264.369 390.316,266.300 389.681,267.400 389.361 C 268.500 389.041,269.713 388.604,270.095 388.389 C 270.477 388.175,271.062 388.000,271.395 388.000 C 271.728 388.000,272.000 387.820,272.000 387.600 C 272.000 387.380,272.450 387.200,273.000 387.200 C 273.550 387.200,274.000 387.020,274.000 386.800 C 274.000 386.580,274.450 386.400,275.000 386.400 C 275.550 386.400,276.000 386.253,276.000 386.072 C 276.000 385.892,276.900 385.500,278.000 385.200 C 279.100 384.900,280.000 384.508,280.000 384.328 C 280.000 384.147,280.360 384.000,280.800 384.000 C 281.240 384.000,281.600 383.820,281.600 383.600 C 281.600 383.380,281.960 383.200,282.400 383.200 C 282.840 383.200,283.200 383.020,283.200 382.800 C 283.200 382.580,283.560 382.400,284.000 382.400 C 284.440 382.400,284.800 382.220,284.800 382.000 C 284.800 381.780,285.143 381.600,285.562 381.600 C 286.229 381.600,289.453 380.147,290.000 379.600 C 290.405 379.195,292.002 378.400,292.411 378.400 C 292.643 378.400,293.220 378.040,293.692 377.600 C 294.164 377.160,294.843 376.800,295.200 376.800 C 295.557 376.800,296.236 376.440,296.708 376.000 C 297.180 375.560,297.771 375.200,298.022 375.200 C 298.472 375.200,300.814 374.006,301.200 373.579 C 301.310 373.458,302.050 373.056,302.845 372.687 C 303.640 372.317,304.517 371.741,304.794 371.407 C 305.071 371.073,305.546 370.800,305.849 370.800 C 306.152 370.800,306.400 370.642,306.400 370.449 C 306.400 370.255,306.940 369.873,307.600 369.600 C 308.260 369.327,308.800 368.945,308.800 368.751 C 308.800 368.558,309.036 368.400,309.325 368.400 C 309.613 368.400,310.236 368.040,310.708 367.600 C 311.180 367.160,311.804 366.800,312.095 366.800 C 312.386 366.800,312.883 366.440,313.200 366.000 C 313.517 365.560,314.057 365.200,314.400 365.200 C 314.743 365.200,315.283 364.840,315.600 364.400 C 315.917 363.960,316.407 363.600,316.688 363.600 C 316.970 363.600,317.200 363.420,317.200 363.200 C 317.200 362.980,317.430 362.800,317.712 362.800 C 317.993 362.800,318.483 362.440,318.800 362.000 C 319.117 361.560,319.707 361.200,320.112 361.200 C 320.516 361.200,320.736 361.020,320.600 360.800 C 320.464 360.580,320.594 360.400,320.888 360.400 C 321.183 360.400,321.683 360.040,322.000 359.600 C 322.317 359.160,322.769 358.800,323.005 358.800 C 323.241 358.800,324.056 358.214,324.817 357.497 C 325.577 356.780,326.830 355.751,327.600 355.210 C 328.370 354.669,329.661 353.545,330.469 352.713 C 331.276 351.881,332.109 351.200,332.319 351.200 C 332.529 351.200,334.658 349.232,337.050 346.827 C 342.323 341.525,341.525 342.323,346.827 337.050 C 349.232 334.658,351.200 332.529,351.200 332.319 C 351.200 332.109,351.881 331.276,352.713 330.469 C 353.545 329.661,354.669 328.370,355.210 327.600 C 355.751 326.830,356.780 325.577,357.497 324.817 C 358.214 324.056,358.800 323.241,358.800 323.005 C 358.800 322.769,359.160 322.317,359.600 322.000 C 360.040 321.683,360.400 321.183,360.400 320.888 C 360.400 320.594,360.580 320.464,360.800 320.600 C 361.020 320.736,361.200 320.516,361.200 320.112 C 361.200 319.707,361.560 319.117,362.000 318.800 C 362.440 318.483,362.800 317.993,362.800 317.712 C 362.800 317.430,362.980 317.200,363.200 317.200 C 363.420 317.200,363.600 316.970,363.600 316.688 C 363.600 316.407,363.960 315.917,364.400 315.600 C 364.840 315.283,365.200 314.743,365.200 314.400 C 365.200 314.057,365.560 313.517,366.000 313.200 C 366.440 312.883,366.800 312.386,366.800 312.095 C 366.800 311.804,367.160 311.180,367.600 310.708 C 368.040 310.236,368.400 309.613,368.400 309.325 C 368.400 309.036,368.558 308.800,368.751 308.800 C 368.945 308.800,369.327 308.260,369.600 307.600 C 369.873 306.940,370.255 306.400,370.449 306.400 C 370.642 306.400,370.800 306.152,370.800 305.849 C 370.800 305.546,371.073 305.071,371.407 304.794 C 371.741 304.517,372.317 303.640,372.687 302.845 C 373.056 302.050,373.458 301.310,373.579 301.200 C 374.006 300.814,375.200 298.472,375.200 298.022 C 375.200 297.771,375.560 297.180,376.000 296.708 C 376.440 296.236,376.800 295.557,376.800 295.200 C 376.800 294.843,377.160 294.164,377.600 293.692 C 378.040 293.220,378.400 292.643,378.400 292.411 C 378.400 292.002,379.195 290.405,379.600 290.000 C 380.147 289.453,381.600 286.229,381.600 285.562 C 381.600 285.143,381.780 284.800,382.000 284.800 C 382.220 284.800,382.400 284.440,382.400 284.000 C 382.400 283.560,382.580 283.200,382.800 283.200 C 383.020 283.200,383.200 282.840,383.200 282.400 C 383.200 281.960,383.380 281.600,383.600 281.600 C 383.820 281.600,384.000 281.240,384.000 280.800 C 384.000 280.360,384.147 280.000,384.328 280.000 C 384.508 280.000,384.900 279.100,385.200 278.000 C 385.500 276.900,385.892 276.000,386.072 276.000 C 386.253 276.000,386.400 275.550,386.400 275.000 C 386.400 274.450,386.580 274.000,386.800 274.000 C 387.020 274.000,387.200 273.550,387.200 273.000 C 387.200 272.450,387.380 272.000,387.600 272.000 C 387.820 272.000,388.000 271.728,388.000 271.395 C 388.000 271.062,388.175 270.477,388.389 270.095 C 388.604 269.713,389.041 268.500,389.361 267.400 C 389.681 266.300,390.316 264.369,390.772 263.110 C 391.227 261.850,391.600 260.275,391.600 259.610 C 391.600 258.944,391.780 258.400,392.000 258.400 C 392.220 258.400,392.400 257.759,392.400 256.976 C 392.400 256.129,392.562 255.653,392.800 255.800 C 393.038 255.947,393.200 255.471,393.200 254.624 C 393.200 253.841,393.380 253.200,393.600 253.200 C 393.820 253.200,394.000 252.570,394.000 251.800 C 394.000 251.030,394.180 250.400,394.400 250.400 C 394.620 250.400,394.800 249.691,394.800 248.824 C 394.800 247.957,394.980 247.136,395.200 247.000 C 395.420 246.864,395.600 245.953,395.600 244.976 C 395.600 243.999,395.780 243.200,396.000 243.200 C 396.220 243.200,396.400 242.480,396.400 241.600 C 396.400 240.720,396.580 240.000,396.800 240.000 C 397.020 240.000,397.200 239.010,397.200 237.800 C 397.200 236.590,397.380 235.600,397.600 235.600 C 397.820 235.600,398.000 234.621,398.000 233.424 C 398.000 232.227,398.180 231.136,398.400 231.000 C 398.620 230.864,398.800 229.518,398.800 228.010 C 398.800 226.501,398.970 225.207,399.178 225.133 C 399.391 225.058,399.653 220.992,399.780 215.800 C 399.903 210.740,399.933 206.780,399.846 207.000 C 399.759 207.220,399.295 208.750,398.816 210.400 C 398.052 213.027,395.032 219.846,394.386 220.400 C 394.258 220.510,393.894 220.977,393.577 221.437 C 389.957 226.691,385.467 230.627,379.733 233.575 C 374.118 236.462,369.311 237.586,362.544 237.594 C 348.876 237.610,336.714 230.756,330.437 219.500 C 329.976 218.675,329.212 217.325,328.738 216.500 C 327.487 214.322,323.611 206.303,322.793 204.200 C 322.622 203.760,322.193 202.742,321.840 201.937 C 320.339 198.518,316.339 187.788,314.555 182.400 C 314.228 181.410,313.801 180.240,313.606 179.800 C 313.412 179.360,313.039 178.280,312.777 177.400 C 312.516 176.520,312.144 175.487,311.951 175.105 C 311.758 174.723,311.600 174.136,311.600 173.800 C 311.600 173.464,311.438 172.877,311.241 172.495 C 311.044 172.113,310.485 170.450,310.000 168.800 C 309.515 167.150,308.956 165.487,308.759 165.105 C 308.562 164.723,308.394 164.093,308.387 163.705 C 308.370 162.751,307.672 161.933,306.000 160.910 C 303.187 159.188,300.609 155.659,300.228 153.007 C 300.132 152.343,299.844 150.180,299.587 148.200 C 298.835 142.414,297.269 138.438,294.226 134.589 C 292.775 132.753,288.792 129.200,288.185 129.200 C 288.041 129.200,287.446 128.864,286.862 128.454 C 283.713 126.242,276.315 124.810,271.940 125.566 C 259.508 127.714,251.957 135.787,250.397 148.600 C 249.127 159.033,243.063 164.375,234.744 162.389 C 226.518 160.425,223.418 153.418,225.548 141.600 C 226.518 136.214,227.346 133.649,229.937 128.000 C 233.190 120.907,241.523 111.438,247.400 108.155 C 247.840 107.909,249.268 107.054,250.574 106.255 C 253.415 104.517,260.065 101.909,263.400 101.226 C 264.720 100.955,266.555 100.569,267.477 100.367 C 269.811 99.856,280.291 99.907,282.869 100.442 C 290.685 102.063,294.524 103.420,299.705 106.391 C 309.553 112.037,317.852 121.531,321.657 131.500 C 321.845 131.995,322.155 132.805,322.345 133.300 C 323.176 135.472,323.701 137.601,324.816 143.326 C 325.065 144.605,325.478 145.711,325.734 145.783 C 331.856 147.508,342.514 151.060,351.600 154.402 C 353.470 155.090,355.810 155.920,356.800 156.247 C 357.790 156.575,359.410 157.216,360.400 157.672 C 361.390 158.128,362.560 158.634,363.000 158.797 C 364.224 159.250,366.121 160.053,366.895 160.447 C 367.277 160.641,367.862 160.800,368.195 160.800 C 368.528 160.800,368.800 160.980,368.800 161.200 C 368.800 161.420,369.027 161.600,369.304 161.600 C 369.974 161.600,376.536 164.802,380.573 167.099 C 383.740 168.901,388.954 172.765,389.860 173.982 C 390.112 174.322,390.799 175.140,391.386 175.800 C 392.864 177.463,394.800 180.264,394.800 180.739 C 394.800 180.956,394.936 181.193,395.102 181.267 C 395.637 181.503,397.877 186.518,398.734 189.400 C 399.193 190.940,399.666 192.470,399.787 192.800 C 399.949 193.243,399.722 179.771,399.492 175.300 C 399.478 175.025,399.317 174.800,399.133 174.800 C 398.950 174.800,398.800 173.551,398.800 172.024 C 398.800 170.497,398.620 169.136,398.400 169.000 C 398.180 168.864,398.000 167.773,398.000 166.576 C 398.000 165.379,397.820 164.400,397.600 164.400 C 397.380 164.400,397.200 163.511,397.200 162.424 C 397.200 161.337,397.020 160.336,396.800 160.200 C 396.580 160.064,396.400 159.243,396.400 158.376 C 396.400 157.509,396.220 156.800,396.000 156.800 C 395.780 156.800,395.600 155.990,395.600 155.000 C 395.600 154.010,395.420 153.200,395.200 153.200 C 394.980 153.200,394.800 152.480,394.800 151.600 C 394.800 150.720,394.620 150.000,394.400 150.000 C 394.180 150.000,394.000 149.280,394.000 148.400 C 394.000 147.520,393.820 146.800,393.600 146.800 C 393.380 146.800,393.200 146.159,393.200 145.376 C 393.200 144.529,393.038 144.053,392.800 144.200 C 392.558 144.350,392.400 143.796,392.400 142.800 C 392.400 141.804,392.242 141.250,392.000 141.400 C 391.770 141.542,391.597 141.170,391.594 140.524 C 391.588 139.330,390.351 135.018,389.880 134.547 C 389.726 134.393,389.600 133.857,389.600 133.357 C 389.600 132.857,389.420 132.336,389.200 132.200 C 388.980 132.064,388.800 131.524,388.800 131.000 C 388.800 130.476,388.620 129.936,388.400 129.800 C 388.180 129.664,388.000 129.203,388.000 128.776 C 388.000 128.349,387.820 128.000,387.600 128.000 C 387.380 128.000,387.200 127.550,387.200 127.000 C 387.200 126.450,387.020 126.000,386.800 126.000 C 386.580 126.000,386.400 125.550,386.400 125.000 C 386.400 124.450,386.259 124.000,386.087 124.000 C 385.915 124.000,385.526 123.145,385.222 122.100 C 384.918 121.055,384.564 120.110,384.435 120.000 C 383.963 119.598,383.200 117.995,383.200 117.405 C 383.200 117.072,383.020 116.800,382.800 116.800 C 382.580 116.800,382.400 116.440,382.400 116.000 C 382.400 115.560,382.220 115.200,382.000 115.200 C 381.780 115.200,381.600 114.750,381.600 114.200 C 381.600 113.650,381.420 113.200,381.200 113.200 C 380.980 113.200,380.800 112.928,380.800 112.595 C 380.800 112.039,380.077 110.476,379.599 110.000 C 379.489 109.890,379.135 109.260,378.814 108.600 C 378.492 107.940,377.907 106.922,377.514 106.338 C 377.121 105.754,376.800 105.023,376.800 104.714 C 376.800 104.404,376.440 103.764,376.000 103.292 C 375.560 102.820,375.200 102.198,375.200 101.910 C 375.200 101.621,374.750 100.723,374.200 99.914 C 373.650 99.105,373.200 98.330,373.200 98.193 C 373.200 98.056,372.660 97.159,372.000 96.200 C 371.340 95.241,370.800 94.263,370.800 94.028 C 370.800 93.793,370.642 93.600,370.449 93.600 C 370.255 93.600,369.873 93.060,369.600 92.400 C 369.327 91.740,368.945 91.200,368.751 91.200 C 368.558 91.200,368.400 90.880,368.400 90.488 C 368.400 90.097,368.040 89.517,367.600 89.200 C 367.160 88.883,366.800 88.343,366.800 88.000 C 366.800 87.657,366.440 87.117,366.000 86.800 C 365.560 86.483,365.200 85.943,365.200 85.600 C 365.200 85.257,364.840 84.717,364.400 84.400 C 363.960 84.083,363.600 83.593,363.600 83.312 C 363.600 83.030,363.420 82.800,363.200 82.800 C 362.980 82.800,362.800 82.570,362.800 82.288 C 362.800 82.007,362.440 81.517,362.000 81.200 C 361.560 80.883,361.200 80.395,361.200 80.115 C 361.200 79.836,360.660 79.091,360.000 78.460 C 359.340 77.829,358.800 77.174,358.800 77.004 C 358.800 76.833,358.412 76.358,357.939 75.947 C 357.465 75.536,357.223 75.200,357.400 75.200 C 357.577 75.200,357.371 74.885,356.942 74.500 C 356.513 74.115,355.723 73.172,355.186 72.405 C 354.650 71.638,353.353 70.135,352.305 69.065 C 351.257 67.995,350.400 66.857,350.400 66.536 C 350.400 66.215,350.220 66.064,350.000 66.200 C 349.780 66.336,349.600 66.268,349.600 66.048 C 349.600 65.829,347.990 64.063,346.021 62.125 C 341.422 57.595,342.014 58.187,337.500 53.598 C 335.355 51.418,333.595 49.761,333.588 49.917 C 333.581 50.073,333.392 49.885,333.168 49.500 C 332.944 49.115,332.581 48.800,332.361 48.800 C 332.142 48.800,331.062 47.900,329.962 46.800 C 328.862 45.700,327.817 44.800,327.640 44.800 C 327.463 44.800,326.768 44.274,326.095 43.631 C 325.422 42.988,324.766 42.568,324.636 42.697 C 324.506 42.827,324.400 42.723,324.400 42.467 C 324.400 42.210,324.119 42.000,323.776 42.000 C 323.433 42.000,323.264 41.820,323.400 41.600 C 323.536 41.380,323.439 41.200,323.184 41.200 C 322.929 41.200,322.217 40.660,321.600 40.000 C 320.983 39.340,320.231 38.800,319.928 38.800 C 319.625 38.800,319.117 38.440,318.800 38.000 C 318.483 37.560,317.993 37.200,317.712 37.200 C 317.430 37.200,317.200 37.020,317.200 36.800 C 317.200 36.580,316.970 36.400,316.688 36.400 C 316.407 36.400,315.917 36.040,315.600 35.600 C 315.283 35.160,314.743 34.800,314.400 34.800 C 314.057 34.800,313.517 34.440,313.200 34.000 C 312.883 33.560,312.343 33.200,312.000 33.200 C 311.657 33.200,311.117 32.840,310.800 32.400 C 310.483 31.960,309.903 31.600,309.512 31.600 C 309.120 31.600,308.800 31.442,308.800 31.249 C 308.800 31.055,308.260 30.673,307.600 30.400 C 306.940 30.127,306.400 29.745,306.400 29.551 C 306.400 29.358,306.229 29.200,306.020 29.200 C 305.811 29.200,304.840 28.660,303.862 28.000 C 302.884 27.340,301.900 26.800,301.675 26.800 C 301.451 26.800,301.207 26.665,301.133 26.500 C 300.969 26.130,298.479 24.800,297.951 24.800 C 297.739 24.800,297.180 24.440,296.708 24.000 C 296.236 23.560,295.596 23.200,295.286 23.200 C 294.977 23.200,294.246 22.879,293.662 22.486 C 293.078 22.093,292.060 21.508,291.400 21.186 C 290.740 20.865,290.110 20.511,290.000 20.401 C 289.455 19.854,286.230 18.400,285.562 18.400 C 285.143 18.400,284.800 18.220,284.800 18.000 C 284.800 17.780,284.440 17.600,284.000 17.600 C 283.560 17.600,283.200 17.420,283.200 17.200 C 283.200 16.980,282.966 16.800,282.680 16.800 C 281.944 16.800,280.007 15.859,280.003 15.500 C 280.001 15.335,279.651 15.200,279.224 15.200 C 278.797 15.200,278.336 15.020,278.200 14.800 C 278.064 14.580,277.524 14.400,277.000 14.400 C 276.476 14.400,275.936 14.220,275.800 14.000 C 275.664 13.780,275.203 13.600,274.776 13.600 C 274.349 13.600,274.000 13.420,274.000 13.200 C 274.000 12.980,273.657 12.800,273.238 12.800 C 272.819 12.800,271.784 12.459,270.938 12.042 C 270.092 11.626,268.590 11.053,267.600 10.770 C 266.610 10.487,265.620 10.133,265.400 9.983 C 265.180 9.833,264.460 9.567,263.800 9.393 C 263.140 9.218,262.330 8.995,262.000 8.898 C 261.670 8.801,260.726 8.630,259.902 8.519 C 259.078 8.407,258.504 8.155,258.626 7.958 C 258.748 7.761,258.207 7.600,257.424 7.600 C 256.641 7.600,256.000 7.420,256.000 7.200 C 256.000 6.980,255.370 6.800,254.600 6.800 C 253.830 6.800,253.200 6.620,253.200 6.400 C 253.200 6.180,252.570 6.000,251.800 6.000 C 251.030 6.000,250.400 5.820,250.400 5.600 C 250.400 5.380,249.601 5.200,248.624 5.200 C 247.647 5.200,246.736 5.020,246.600 4.800 C 246.464 4.580,245.643 4.400,244.776 4.400 C 243.909 4.400,243.200 4.220,243.200 4.000 C 243.200 3.780,242.491 3.600,241.624 3.600 C 240.757 3.600,239.936 3.420,239.800 3.200 C 239.664 2.980,238.663 2.800,237.576 2.800 C 236.489 2.800,235.600 2.620,235.600 2.400 C 235.600 2.180,234.621 2.000,233.424 2.000 C 232.227 2.000,231.136 1.820,231.000 1.600 C 230.864 1.380,229.503 1.200,227.976 1.200 C 226.449 1.200,225.200 1.050,225.200 0.867 C 225.200 0.338,182.888 -0.384,182.389 0.136 M323.638 225.171 C 331.657 226.485,336.778 234.661,333.985 241.690 C 332.419 245.630,322.410 262.288,320.310 264.448 C 320.015 264.752,319.342 265.630,318.815 266.400 C 313.781 273.750,300.840 286.711,290.600 294.659 C 287.551 297.025,278.577 303.200,278.187 303.200 C 278.119 303.200,276.312 304.211,274.173 305.446 C 266.244 310.024,256.002 314.577,247.218 317.428 C 241.254 319.364,241.145 319.395,235.600 320.730 C 230.962 321.847,229.574 322.125,223.300 323.191 C 210.088 325.435,189.912 325.435,176.700 323.191 C 170.421 322.124,169.038 321.847,164.400 320.727 C 159.604 319.568,158.317 319.197,151.596 317.036 C 142.607 314.146,121.108 303.779,118.800 301.222 C 118.690 301.100,117.250 300.116,115.600 299.037 C 96.711 286.675,76.998 264.234,67.077 243.800 C 66.649 242.920,66.126 241.862,65.915 241.449 C 62.971 235.709,68.714 226.432,75.973 225.203 C 78.617 224.756,320.909 224.724,323.638 225.171 " stroke="none" fill="#fbcb2c" fill-rule="evenodd"></path><path id="path4" d="M117.600 100.415 C 117.005 100.614,118.058 100.657,120.200 100.522 C 122.180 100.396,123.875 100.228,123.967 100.147 C 124.304 99.849,118.567 100.091,117.600 100.415 M126.033 100.147 C 126.125 100.228,127.820 100.396,129.800 100.522 C 131.942 100.657,132.995 100.614,132.400 100.415 C 131.433 100.091,125.696 99.849,126.033 100.147 M267.600 100.415 C 267.005 100.614,268.058 100.657,270.200 100.522 C 272.180 100.396,273.875 100.228,273.967 100.147 C 274.304 99.849,268.567 100.091,267.600 100.415 M276.033 100.147 C 276.125 100.228,277.820 100.396,279.800 100.522 C 281.942 100.657,282.995 100.614,282.400 100.415 C 281.433 100.091,275.696 99.849,276.033 100.147 M111.600 101.616 C 107.807 102.680,102.355 105.051,99.587 106.840 C 98.259 107.698,97.091 108.400,96.991 108.400 C 96.453 108.400,91.823 112.305,89.332 114.859 C 81.767 122.615,77.112 131.691,75.617 141.600 C 75.142 144.751,74.570 146.000,73.604 146.000 C 73.156 146.000,72.477 146.162,72.095 146.359 C 71.713 146.556,70.050 147.124,68.400 147.621 C 62.913 149.274,53.641 152.393,51.800 153.206 C 51.360 153.401,50.190 153.829,49.200 154.158 C 45.725 155.312,43.195 156.272,42.932 156.535 C 42.786 156.681,42.425 156.800,42.129 156.800 C 41.833 156.800,40.738 157.178,39.696 157.640 C 37.440 158.639,36.086 159.203,35.000 159.597 C 34.560 159.756,33.418 160.272,32.462 160.743 C 31.506 161.214,30.471 161.600,30.162 161.600 C 29.853 161.600,29.600 161.780,29.600 162.000 C 29.600 162.220,29.341 162.400,29.025 162.400 C 26.702 162.400,14.594 169.805,10.903 173.482 C 7.124 177.247,6.250 178.467,3.377 183.977 C 2.038 186.545,0.000 193.389,0.000 195.316 C 0.000 197.582,0.522 196.811,0.838 194.079 C 2.499 179.711,13.160 168.923,33.793 160.730 C 34.889 160.294,36.740 159.502,37.905 158.969 C 39.070 158.436,40.201 158.000,40.417 158.000 C 40.634 158.000,41.123 157.841,41.505 157.647 C 42.716 157.031,44.145 156.458,46.000 155.847 C 46.990 155.520,49.330 154.687,51.200 153.995 C 53.070 153.303,55.590 152.411,56.800 152.011 C 58.010 151.612,59.720 151.012,60.600 150.678 C 61.480 150.344,65.118 149.150,68.684 148.025 L 75.168 145.980 75.582 144.490 C 75.809 143.671,75.997 142.473,75.998 141.828 C 76.000 140.624,76.077 140.314,77.629 135.200 C 82.594 118.850,96.226 105.961,112.979 101.779 C 114.971 101.282,116.060 100.878,115.400 100.881 C 114.740 100.884,113.030 101.215,111.600 101.616 M137.000 101.787 C 158.735 107.291,174.800 127.412,174.800 149.131 C 174.800 164.412,153.917 167.274,150.521 152.458 L 150.003 150.200 150.150 152.079 C 150.934 162.114,164.404 166.252,171.694 158.696 C 173.074 157.265,173.492 156.550,174.744 153.481 C 175.316 152.077,175.337 145.954,174.779 143.131 C 173.628 137.313,173.166 135.445,172.345 133.300 C 172.155 132.805,171.845 131.995,171.657 131.500 C 167.913 121.690,159.657 112.163,150.074 106.594 C 145.065 103.684,136.967 100.727,134.307 100.838 C 133.808 100.858,135.020 101.286,137.000 101.787 M261.600 101.616 C 257.807 102.680,252.355 105.051,249.587 106.840 C 248.259 107.698,247.091 108.400,246.991 108.400 C 246.453 108.400,241.823 112.305,239.332 114.859 C 231.798 122.583,227.457 131.005,225.548 141.600 C 223.418 153.418,226.518 160.425,234.744 162.389 C 241.608 164.028,250.232 158.043,249.964 151.829 C 249.945 151.373,249.704 151.810,249.429 152.800 C 246.350 163.894,231.117 165.731,226.695 155.541 C 225.342 152.424,225.200 151.841,225.200 149.389 C 225.200 127.536,241.355 107.177,262.979 101.779 C 264.971 101.282,266.060 100.878,265.400 100.881 C 264.740 100.884,263.030 101.215,261.600 101.616 M287.000 101.787 C 306.517 106.729,321.807 123.560,324.169 142.705 C 324.573 145.974,324.406 145.851,331.343 148.039 C 339.245 150.531,340.126 150.825,344.400 152.400 C 346.270 153.089,348.610 153.920,349.600 154.247 C 350.590 154.573,351.760 154.993,352.200 155.180 C 352.640 155.366,353.630 155.736,354.400 156.000 C 355.170 156.264,356.160 156.626,356.600 156.803 C 357.040 156.981,358.210 157.427,359.200 157.796 C 360.190 158.164,361.630 158.739,362.400 159.074 C 363.170 159.408,364.205 159.843,364.700 160.041 C 386.905 168.903,397.158 179.032,399.204 194.126 C 399.628 197.259,400.161 197.611,399.900 194.586 C 399.589 190.982,396.276 181.785,395.102 181.267 C 394.936 181.193,394.800 180.956,394.800 180.739 C 394.800 180.264,392.864 177.463,391.386 175.800 C 390.799 175.140,390.112 174.322,389.860 173.982 C 388.954 172.765,383.740 168.901,380.573 167.099 C 376.536 164.802,369.974 161.600,369.304 161.600 C 369.027 161.600,368.800 161.420,368.800 161.200 C 368.800 160.980,368.528 160.800,368.195 160.800 C 367.862 160.800,367.277 160.641,366.895 160.447 C 366.513 160.252,365.750 159.916,365.200 159.700 C 362.964 158.821,362.119 158.464,360.400 157.672 C 359.410 157.216,357.790 156.575,356.800 156.247 C 355.810 155.920,353.470 155.090,351.600 154.402 C 342.514 151.060,331.856 147.508,325.734 145.783 C 325.478 145.711,325.065 144.605,324.816 143.326 C 323.701 137.601,323.176 135.472,322.345 133.300 C 322.155 132.805,321.845 131.995,321.657 131.500 C 317.913 121.690,309.657 112.163,300.074 106.594 C 295.065 103.684,286.967 100.727,284.307 100.838 C 283.808 100.858,285.020 101.286,287.000 101.787 M120.600 125.233 C 112.564 127.002,106.146 131.753,102.813 138.400 C 101.508 141.002,100.632 143.565,100.941 143.874 C 101.062 143.995,101.285 143.578,101.437 142.947 C 104.844 128.768,125.361 120.374,136.862 128.454 C 137.446 128.864,138.041 129.200,138.185 129.200 C 138.788 129.200,142.770 132.747,144.206 134.563 C 147.049 138.159,148.437 141.383,149.389 146.600 C 149.870 149.240,149.902 149.297,149.950 147.595 C 150.308 134.748,133.959 122.291,120.600 125.233 M270.600 125.233 C 262.564 127.002,256.146 131.753,252.813 138.400 C 251.508 141.002,250.632 143.565,250.941 143.874 C 251.062 143.995,251.285 143.578,251.437 142.947 C 254.844 128.768,275.361 120.374,286.862 128.454 C 287.446 128.864,288.041 129.200,288.185 129.200 C 288.788 129.200,292.770 132.747,294.206 134.563 C 297.049 138.159,298.437 141.383,299.389 146.600 C 299.870 149.240,299.902 149.297,299.950 147.595 C 300.308 134.748,283.959 122.291,270.600 125.233 M100.303 145.200 C 100.142 145.750,100.028 147.010,100.049 148.000 L 100.088 149.800 100.450 148.000 C 100.650 147.010,100.764 145.750,100.704 145.200 L 100.595 144.200 100.303 145.200 M250.303 145.200 C 250.142 145.750,250.028 147.010,250.049 148.000 L 250.088 149.800 250.450 148.000 C 250.650 147.010,250.764 145.750,250.704 145.200 L 250.595 144.200 250.303 145.200 M300.150 152.079 C 300.404 155.332,302.802 158.952,306.000 160.910 C 307.672 161.933,308.370 162.751,308.387 163.705 C 308.394 164.093,308.562 164.723,308.759 165.105 C 308.956 165.487,309.515 167.150,310.000 168.800 C 310.485 170.450,311.044 172.113,311.241 172.495 C 311.438 172.877,311.600 173.541,311.600 173.971 C 311.600 174.401,311.780 174.864,312.000 175.000 C 312.607 175.375,312.511 174.902,311.059 170.379 C 310.321 168.080,309.413 165.194,309.042 163.964 C 308.460 162.040,308.131 161.596,306.683 160.782 C 303.576 159.036,301.335 156.008,300.521 152.458 L 300.003 150.200 300.150 152.079 M99.445 152.581 C 98.776 155.969,96.536 158.973,93.337 160.771 C 91.881 161.589,91.604 161.993,90.883 164.347 C 88.111 173.398,85.933 179.877,82.798 188.400 C 82.110 190.270,81.277 192.610,80.947 193.600 C 80.616 194.590,80.103 195.940,79.805 196.600 C 79.508 197.260,78.696 199.240,78.001 201.000 C 77.306 202.760,75.942 205.874,74.969 207.920 C 73.996 209.965,73.200 211.739,73.200 211.860 C 73.200 212.945,67.380 222.205,64.600 225.542 C 56.722 234.999,40.222 239.441,26.961 235.676 C 13.667 231.902,2.352 219.013,0.838 205.921 C 0.482 202.838,-0.162 202.384,0.100 205.400 C 1.028 216.070,9.878 228.300,20.573 233.691 C 26.159 236.507,30.756 237.568,37.456 237.586 C 41.799 237.598,43.398 237.425,46.656 236.591 C 52.873 235.000,57.286 232.621,63.326 227.603 C 64.343 226.759,68.071 222.083,69.070 220.400 C 70.479 218.026,72.079 215.101,73.226 212.800 C 75.103 209.036,77.600 203.690,77.600 203.435 C 77.600 203.301,77.978 202.338,78.440 201.296 C 79.344 199.256,79.926 197.870,80.415 196.600 C 82.411 191.405,87.238 177.658,88.771 172.800 C 89.499 170.490,90.234 168.240,90.402 167.800 C 90.571 167.360,90.930 166.190,91.200 165.200 C 91.959 162.419,92.343 161.813,93.864 160.993 C 96.941 159.337,100.405 154.014,99.909 151.705 C 99.825 151.313,99.619 151.702,99.445 152.581 M312.400 176.115 C 312.400 176.702,312.606 177.318,313.630 179.800 C 313.811 180.240,314.228 181.410,314.555 182.400 C 316.339 187.788,320.339 198.518,321.840 201.937 C 322.193 202.742,322.622 203.760,322.793 204.200 C 323.611 206.303,327.487 214.322,328.738 216.500 C 329.212 217.325,329.976 218.675,330.437 219.500 C 339.757 236.213,362.161 242.609,379.733 233.575 C 385.467 230.627,389.957 226.691,393.577 221.437 C 393.894 220.977,394.258 220.510,394.386 220.400 C 394.961 219.906,398.020 213.130,398.810 210.600 C 399.705 207.737,400.370 202.240,399.634 203.800 C 399.426 204.240,399.244 205.217,399.228 205.972 C 399.200 207.363,399.083 207.808,397.566 212.346 C 396.785 214.682,393.830 220.729,393.240 221.200 C 393.102 221.310,392.195 222.390,391.224 223.600 C 388.424 227.089,385.047 230.127,382.404 231.535 C 373.609 236.219,371.019 236.925,362.600 236.935 C 348.397 236.953,337.702 230.808,330.445 218.460 C 328.411 215.000,324.513 207.113,323.199 203.800 C 323.024 203.360,322.608 202.370,322.273 201.600 C 321.160 199.040,319.133 193.824,318.543 192.000 C 318.222 191.010,317.802 189.840,317.608 189.400 C 317.229 188.536,315.820 184.601,313.969 179.238 C 312.762 175.739,312.400 175.019,312.400 176.115 " stroke="none" fill="#aaa95a" fill-rule="evenodd"></path></g></svg>